<svg width="124" height="124" viewBox="0 0 124 124" fill="none" xmlns="http://www.w3.org/2000/svg">
<path d="M62 0C49.7376 -1.46228e-07 37.7505 3.63624 27.5546 10.4489C17.3588 17.2615 9.4121 26.9446 4.71947 38.2736C0.0268358 49.6026 -1.20097 62.0688 1.19131 74.0956C3.5836 86.1224 9.48852 97.1698 18.1594 105.841C26.8302 114.511 37.8776 120.416 49.9044 122.809C61.9312 125.201 74.3974 123.973 85.7264 119.281C97.0554 114.588 106.738 106.641 113.551 96.4454C120.364 86.2495 124 74.2624 124 62L68.2 62C68.2 63.2262 67.8364 64.425 67.1551 65.4445C66.4738 66.4641 65.5055 67.2588 64.3726 67.7281C63.2397 68.1973 61.9931 68.3201 60.7904 68.0809C59.5878 67.8416 58.483 67.2511 57.6159 66.3841C56.7489 65.517 56.1584 64.4122 55.9191 63.2096C55.6799 62.0069 55.8027 60.7603 56.2719 59.6274C56.7412 58.4945 57.5359 57.5262 58.5555 56.8449C59.575 56.1636 60.7738 55.8 62 55.8L62 0Z" fill="#00FF37"/>
</svg>
