<svg width="3429" height="3428" viewBox="0 0 3429 3428" fill="none" xmlns="http://www.w3.org/2000/svg">
<path d="M2801.12 1086.75C2911.24 1277.47 2969.21 1493.81 2969.21 1714.03C2969.21 1934.26 2911.24 2150.6 2801.12 2341.32L1714.63 1714.03L2801.12 1086.75Z" fill="#CE0000"/>
<path d="M628.722 2341.48C518.61 2150.76 460.641 1934.42 460.641 1714.19C460.641 1493.97 518.61 1277.62 628.722 1086.9L1715.22 1714.19L628.722 2341.48Z" fill="#D8D800"/>
<path d="M1714.5 460C1934.71 460 2151.04 517.966 2341.75 628.071C2532.46 738.177 2690.82 896.542 2800.93 1087.25L1714.5 1714.5L1714.5 460Z" fill="#17C100"/>
<path d="M1715.5 2969C1495.29 2969 1278.96 2911.01 1088.25 2800.86C897.542 2690.71 739.176 2532.28 629.071 2341.5L1715.5 1714L1715.5 2969Z" fill="#B300EF"/>
<path d="M628.428 1086.82C738.54 896.105 896.915 737.73 1087.63 627.618C1278.35 517.506 1494.7 459.536 1714.92 459.536L1714.92 1714.11L628.428 1086.82Z" fill="#008CE3"/>
<path d="M2801.42 2341.4C2691.31 2532.12 2532.93 2690.5 2342.21 2800.61C2151.49 2910.72 1935.15 2968.69 1714.92 2968.69L1714.92 1714.11L2801.42 2341.4Z" fill="#D78400"/>
</svg>
