<svg width="230" height="230" viewBox="0 0 230 230" fill="none" xmlns="http://www.w3.org/2000/svg">
<path d="M114.977 1C134.965 0.995931 154.603 6.24727 171.921 16.2274C189.239 26.2075 203.629 40.5656 213.647 57.8617L115 115L114.977 1Z" fill="#94D13D" stroke="white" stroke-linejoin="round"/>
<path d="M213.704 57.9604C223.715 75.2833 228.99 94.9356 229 114.943C229.01 134.95 223.754 154.608 213.761 171.941L115 115L213.704 57.9604Z" fill="#6F58E9" stroke="white" stroke-linejoin="round"/>
<path d="M213.704 172.04C203.703 189.346 189.328 203.718 172.02 213.716C154.711 223.713 135.079 228.984 115.091 229L115 115L213.704 172.04Z" fill="#2D99FE" stroke="white" stroke-linejoin="round"/>
<path d="M114.977 229C94.9888 228.996 75.3531 223.737 58.039 213.749C40.7249 203.762 26.341 189.398 16.3298 172.098L115 115L114.977 229Z" fill="#2DDAC1" stroke="white" stroke-linejoin="round"/>
<path d="M16.2728 171.999C6.27885 154.689 1.01187 135.056 1.00002 115.068C0.988174 95.0795 6.23188 75.4397 16.2053 58.1177L115 115L16.2728 171.999Z" fill="#859EBC" stroke="white" stroke-linejoin="round"/>
<path d="M16.2622 58.0189C26.2529 40.7069 40.6198 26.3259 57.922 16.3182C75.2243 6.3105 94.8536 1.02789 114.842 1.00012L115 115L16.2622 58.0189Z" fill="#46932F" stroke="white" stroke-linejoin="round"/>
</svg>
