<svg width="276" height="276" viewBox="0 0 276 276" fill="none" xmlns="http://www.w3.org/2000/svg">
<path d="M225.45 87.4735C234.315 102.828 238.982 120.246 238.982 137.976C238.982 155.707 234.315 173.124 225.45 188.479L137.976 137.976L225.45 87.4735Z" fill="#CE0000"/>
<path d="M50.5502 188.492C41.6851 173.137 37.018 155.719 37.018 137.989C37.018 120.259 41.6851 102.841 50.5502 87.4862L138.024 137.989L50.5502 188.492Z" fill="#D8D800"/>
<path d="M137.965 37.0143C155.694 37.0143 173.111 41.6811 188.465 50.5457C203.819 59.4102 216.569 72.1602 225.434 87.5141L137.965 138.014L137.965 37.0143Z" fill="#17C100"/>
<path d="M138.046 239.013C120.317 239.013 102.9 234.345 87.5466 225.477C72.1927 216.609 59.4427 203.853 50.5782 188.493L138.046 137.974L138.046 239.013Z" fill="#B300EF"/>
<path d="M50.5275 87.4798C59.3926 72.125 72.1434 59.3742 87.4982 50.5091C102.853 41.644 120.271 36.9769 138.001 36.9769L138.001 137.983L50.5275 87.4798Z" fill="#008CE3"/>
<path d="M225.472 188.486C216.607 203.84 203.857 216.591 188.502 225.456C173.147 234.321 155.729 238.988 137.999 238.988L137.999 137.983L225.472 188.486Z" fill="#D78400"/>
</svg>
